<svg version="1.0" xmlns="http://www.w3.org/2000/svg"
     width="319.000000pt" height="328.000000pt" viewBox="0 0 319.000000 328.000000"
     preserveAspectRatio="xMidYMid meet" fill="#387b7e">
    <g transform="translate(0.000000,328.000000) scale(0.100000,-0.100000)"
       stroke="none">
        <path d="M806 2378 l-727 -733 148 -3 147 -3 83 83 83 83 0 -476 0 -475 -92
-42 c-132 -60 -324 -176 -278 -168 297 54 521 71 720 56 242 -18 401 -57 692
-171 340 -132 496 -167 701 -156 247 13 498 117 642 267 l40 41 -65 -32 c-145
-71 -306 -109 -464 -109 -84 1 -170 11 -181 22 -10 10 69 226 113 313 76 147
186 277 326 385 26 20 19 8 -55 -91 -128 -170 -199 -296 -253 -447 l-26 -73
22 6 c44 13 168 74 215 106 217 149 364 414 380 685 l6 101 -59 -9 c-419 -65
-654 -320 -703 -762 -6 -52 -11 -120 -11 -151 0 -30 -1 -55 -3 -55 -15 0 -156
65 -308 143 -405 205 -742 270 -1106 211 l-43 -7 0 547 0 546 397 396 396 396
309 -309 c169 -169 308 -303 308 -297 0 5 30 43 68 82 l67 72 -381 381 -381
381 -727 -734z"/>
        <path d="M2647 2486 c-333 -170 -521 -413 -598 -771 -49 -230 -28 -563 53
-855 27 -95 38 -108 38 -44 0 109 63 505 105 661 37 137 89 280 140 386 49
103 175 301 175 276 0 -8 -4 -19 -9 -25 -19 -20 -111 -237 -154 -365 -38 -115
-68 -231 -102 -398 -7 -34 -3 -31 106 70 157 143 185 173 239 256 98 148 142
313 143 528 1 159 -20 325 -42 325 -4 0 -46 -20 -94 -44z"/>
        <path d="M1260 1930 l0 -120 115 0 115 0 0 120 0 120 -115 0 -115 0 0 -120z"/>
        <path d="M1570 1930 l0 -120 115 0 115 0 0 120 0 120 -115 0 -115 0 0 -120z"/>
        <path d="M1260 1640 l0 -120 115 0 115 0 0 120 0 120 -115 0 -115 0 0 -120z"/>
        <path d="M1567 1643 l2 -118 116 -3 115 -3 0 120 0 121 -117 0 -118 0 2 -117z"/>
        <path d="M525 559 c-96 -13 -98 -14 -30 -29 89 -19 256 -77 490 -173 386 -157
581 -204 800 -194 134 7 237 30 338 76 72 32 85 44 38 35 -42 -9 -227 13 -361
43 -63 13 -196 54 -295 90 -365 133 -452 152 -720 158 -104 2 -221 0 -260 -6z"/>
    </g>
</svg>
